<svg width="32" height="32" viewBox="0 0 32 32" fill="none" xmlns="http://www.w3.org/2000/svg">
<mask id="mask0" mask-type="alpha" maskUnits="userSpaceOnUse" x="0" y="0" width="32" height="32">
<rect width="32" height="32" fill="#0C0722"/>
</mask>
<g mask="url(#mask0)">
<rect width="32" height="32" rx="5" fill="#271870"/>
<path d="M10.5568 22.43C10.0288 22.43 9.55482 22.406 9.13482 22.358C8.72682 22.31 8.27682 22.22 7.78482 22.088C7.23282 21.944 6.77682 21.758 6.41682 21.53C6.05682 21.29 5.75682 20.96 5.51682 20.54C5.26482 20.12 5.13882 19.622 5.13882 19.046V13.916C5.13882 11.564 6.94482 10.388 10.5568 10.388C11.4808 10.388 12.7168 10.52 14.2648 10.784V12.89C12.8728 12.554 11.6488 12.386 10.5928 12.386C10.1488 12.386 9.80082 12.398 9.54882 12.422C9.30882 12.446 9.05682 12.506 8.79282 12.602C8.22882 12.794 7.94682 13.22 7.94682 13.88V18.848C7.94682 19.904 8.91282 20.432 10.8448 20.432C11.6728 20.432 12.8368 20.258 14.3368 19.91V22.034C13.0528 22.298 11.7928 22.43 10.5568 22.43ZM16.0411 10.568H18.8851L22.0171 19.91H22.0891L25.2211 10.568H27.9931L23.6731 22.25H20.2351L16.0411 10.568Z" fill="#C7C8D7"/>
</g>
</svg>
