<svg width="256" height="256" viewBox="0 0 256 256" fill="none" xmlns="http://www.w3.org/2000/svg">
<mask id="mask0" mask-type="alpha" maskUnits="userSpaceOnUse" x="0" y="0" width="256" height="256">
<rect width="256" height="256" fill="#0C0722"/>
</mask>
<g mask="url(#mask0)">
<rect width="256" height="256" rx="40" fill="#271870"/>
<path d="M84.4546 178.44C80.2306 178.44 76.4386 178.248 73.0786 177.864C69.8146 177.48 66.2146 176.76 62.2786 175.704C57.8626 174.552 54.2146 173.064 51.3346 171.24C48.4546 169.32 46.0546 166.68 44.1346 163.32C42.1186 159.96 41.1106 155.976 41.1106 151.368V110.328C41.1106 91.512 55.5586 82.104 84.4546 82.104C91.8466 82.104 101.735 83.16 114.119 85.272V102.12C102.983 99.432 93.1906 98.088 84.7426 98.088C81.1906 98.088 78.4066 98.184 76.3906 98.376C74.4706 98.568 72.4546 99.048 70.3426 99.816C65.8306 101.352 63.5746 104.76 63.5746 110.04V149.784C63.5746 158.232 71.3026 162.456 86.7586 162.456C93.3826 162.456 102.695 161.064 114.695 158.28V175.272C104.423 177.384 94.3426 178.44 84.4546 178.44ZM128.328 83.544H151.08L176.136 158.28H176.712L201.768 83.544H223.944L189.384 177H161.88L128.328 83.544Z" fill="#C7C8D7"/>
</g>
</svg>
