<svg width="1356" height="134" viewBox="0 0 1356 134" fill="none" xmlns="http://www.w3.org/2000/svg">
<path d="M0 2H52C64.6667 2 74.6667 2.86666 82 4.6C89.4667 6.33333 94.8667 9.4 98.2 13.8C101.667 18.0667 103.4 24.0667 103.4 31.8V56.4C103.4 64.9333 101.533 71.6 97.8 76.4C94.2 81.2 88.4 84.6 80.4 86.6C72.5333 88.6 61.8667 89.6 48.4 89.6H31.2V131.8H0V2ZM51 68.2C59.1333 68.2 64.8667 67.2667 68.2 65.4C71.5333 63.4 73.2 60.0667 73.2 55.4V34.6C73.2 30.3333 71.6 27.5333 68.4 26.2C65.3333 24.8667 59.4 24.2 50.6 24.2H31.2V68.2H51Z" fill="#C7C7D7"/>
<path d="M109.391 2H208.391V24.2H140.591V54H201.791V76.2H140.591V109.6H210.391V131.8H109.391V2Z" fill="#C7C7D7"/>
<path d="M254.861 133.8C236.994 133.8 221.194 132.333 207.461 129.4V105.8C216.794 107.933 224.461 109.467 230.461 110.4C236.461 111.2 242.994 111.6 250.061 111.6C260.194 111.6 267.194 110.6 271.061 108.6C274.928 106.467 276.861 103.133 276.861 98.6V86C276.861 81.8667 274.794 79.2 270.661 78C266.661 76.8 260.261 76.2 251.461 76.2H225.661V54H251.461C257.328 54 261.728 53.6 264.661 52.8C267.594 52 269.594 50.8667 270.661 49.4C271.728 47.8 272.261 45.5333 272.261 42.6V32.4C272.261 28.2667 270.661 25.5333 267.461 24.2C264.261 22.8667 258.461 22.2 250.061 22.2C238.994 22.2 225.661 24.1333 210.061 28V4.6C226.328 1.53333 241.594 0 255.861 0C272.661 0 284.794 1.93333 292.261 5.8C299.728 9.53333 303.461 16.0667 303.461 25.4V46.2C303.461 50.0667 302.128 53.4667 299.461 56.4C296.794 59.2 293.594 61.0667 289.861 62V62.6C301.994 66.0667 308.061 72.5333 308.061 82V103C308.061 113.267 303.528 121 294.461 126.2C285.528 131.267 272.328 133.8 254.861 133.8Z" fill="#C7C7D7"/>
<path d="M431.123 133.8C414.59 133.8 400.39 131.133 388.523 125.8C376.657 120.333 370.723 110.467 370.723 96.2V76.2H344.723V131.8H313.523V2H344.723V54H370.723V39.4C370.723 23.6667 376.857 13.2 389.123 8C401.39 2.66667 415.39 0 431.123 0C447.39 0 461.59 2.73333 473.723 8.2C485.857 13.6667 491.923 24.0667 491.923 39.4V96.2C491.923 109.667 485.923 119.333 473.923 125.2C461.923 130.933 447.657 133.8 431.123 133.8ZM431.523 111.6C440.99 111.6 448.19 110.6 453.123 108.6C458.19 106.467 460.723 102.333 460.723 96.2V39.2C460.723 33.0667 458.39 28.7333 453.723 26.2C449.057 23.5333 441.59 22.2 431.323 22.2C420.923 22.2 413.39 23.4667 408.723 26C404.19 28.5333 401.923 32.9333 401.923 39.2V96.2C401.923 102.2 404.457 106.267 409.523 108.4C414.723 110.533 422.057 111.6 431.523 111.6Z" fill="#C7C7D7"/>
<path d="M501.039 2H545.439L577.439 94.8L609.039 2H650.839V131.8H622.639V35.8H622.039L589.239 131.8H564.239L530.439 35.8H529.639V131.8H501.039V2Z" fill="#C7C7D7"/>
<path d="M662.773 2H761.773V24.2H693.973V54H755.173V76.2H693.973V109.6H763.773V131.8H662.773V2Z" fill="#C7C7D7"/>
<path d="M863.338 133.8C857.204 133.8 851.471 133.533 846.138 133C840.804 132.467 835.138 131.467 829.138 130C822.204 128.4 816.337 126.333 811.537 123.8C806.871 121.267 803.004 117.933 799.938 113.8C796.604 109.533 794.938 104.467 794.938 98.6V37.2C794.938 32 796.071 27.3333 798.338 23.2C800.604 19.0667 803.737 15.6667 807.737 13C816.004 7.66667 825.337 4.13334 835.737 2.40001C845.471 0.800002 854.671 0 863.338 0C869.471 0 875.071 0.266665 880.138 0.799999C885.338 1.33333 890.938 2.33334 896.938 3.8C903.871 5.53333 909.604 7.73333 914.138 10.4C918.671 12.9333 922.471 16.4 925.537 20.8C928.737 25.3333 930.338 30.7333 930.338 37V98.6C930.338 104.067 928.804 109.067 925.737 113.6C922.671 118 918.604 121.467 913.537 124C908.871 126.267 903.338 128.267 896.938 130C890.671 131.6 884.804 132.6 879.338 133C874.538 133.533 869.204 133.8 863.338 133.8ZM863.737 117.4C868.537 117.4 872.338 117.333 875.138 117.2C877.938 116.933 881.471 116.467 885.737 115.8C890.537 115.133 894.404 114.133 897.338 112.8C900.271 111.333 902.871 109.267 905.138 106.6C907.404 103.933 908.537 100.733 908.537 97V37.6C908.537 22.9333 893.537 15.6 863.537 15.6C832.204 15.6 816.537 22.9333 816.537 37.6V97C816.537 110.6 832.271 117.4 863.737 117.4ZM863.338 101.4C855.204 101.4 848.871 100.667 844.338 99.2C839.804 97.7333 836.537 95.2667 834.537 91.8C832.537 88.3333 831.537 83.4667 831.537 77.2V54C831.537 45.7333 834.071 39.6667 839.138 35.8C844.204 31.8 852.271 29.8 863.338 29.8C874.271 29.8 881.938 31.5333 886.338 35C890.871 38.4667 893.138 44.1333 893.138 52V57.4H872.537V53.6C872.537 50.9333 872.337 49.0667 871.938 48C871.537 46.8 870.671 46 869.338 45.6C868.004 45.2 865.804 45 862.737 45C859.004 45 856.471 45.7333 855.138 47.2C853.804 48.5333 853.138 51.3333 853.138 55.6V75.6C853.138 78.8 853.337 81.1333 853.737 82.6C854.271 84.0667 855.138 85.0667 856.338 85.6C857.671 86 859.804 86.2 862.737 86.2C865.937 86.2 868.138 86.0667 869.338 85.8C870.671 85.4 871.537 84.6667 871.938 83.6C872.337 82.4 872.537 80.4 872.537 77.6V73.6H893.138V79.2C893.138 87.0667 890.937 92.7333 886.537 96.2C882.271 99.6667 874.538 101.4 863.338 101.4Z" fill="#C7C7D7"/>
<path d="M966.1 102.2C966.1 95 968.1 88.7333 972.1 83.4C976.1 78.0667 981.3 74 987.7 71.2C992.767 68.9333 998.7 66.6667 1005.5 64.4C1012.3 62.1333 1017.57 59.7333 1021.3 57.2C1025.03 54.6667 1026.9 51.6667 1026.9 48.2V31.6C1026.9 27.4667 1025.23 24.7333 1021.9 23.4C1018.3 21.9333 1012.7 21.2 1005.1 21.2C995.9 21.2 983.767 22.8667 968.7 26.2V4.2C982.033 1.4 995.967 0 1010.5 0C1026.23 0 1037.9 2.4 1045.5 7.2C1053.23 12 1057.1 20 1057.1 31.2V49.2C1057.1 56 1055.03 61.9333 1050.9 67C1046.9 71.9333 1041.7 75.6667 1035.3 78.2C1029.3 80.7333 1023.17 83 1016.9 85C1010.1 87.4 1004.7 90.0667 1000.7 93C996.833 95.9333 994.9 99.4 994.9 103.4V110H1057.3V131.8H966.1V102.2Z" fill="#C7C7D7"/>
<path d="M1112.32 133.8C1106.45 133.8 1101.65 133.6 1097.92 133.2C1094.18 132.8 1090.12 132 1085.72 130.8C1081.18 129.467 1077.52 127.6 1074.72 125.2C1071.92 122.667 1069.58 119.067 1067.72 114.4C1065.72 109.867 1064.72 104.4 1064.72 98V35.8C1064.72 29.6667 1065.65 24.2667 1067.52 19.6C1069.38 14.9333 1071.78 11.2667 1074.72 8.59999C1077.25 6.33333 1080.72 4.53334 1085.12 3.2C1089.52 1.73333 1093.92 0.8 1098.32 0.400005C1103.38 0.133334 1108.05 0 1112.32 0C1118.32 0 1123.12 0.199999 1126.72 0.600002C1130.32 0.866666 1134.32 1.66666 1138.72 3C1143.52 4.46667 1147.32 6.40001 1150.12 8.80001C1152.92 11.2 1155.32 14.6667 1157.32 19.2C1159.32 23.7333 1160.32 29.2667 1160.32 35.8V98C1160.32 104.133 1159.32 109.533 1157.32 114.2C1155.45 118.867 1153.05 122.467 1150.12 125C1147.45 127.267 1143.78 129.133 1139.12 130.6C1134.58 132.067 1130.25 132.933 1126.12 133.2C1122.38 133.6 1117.78 133.8 1112.32 133.8ZM1112.72 115C1118.32 115 1122.32 114.667 1124.72 114C1127.12 113.2 1128.72 111.8 1129.52 109.8C1130.32 107.8 1130.72 104.533 1130.72 100V33.8C1130.72 29.2667 1130.32 26 1129.52 24C1128.72 22 1127.12 20.6667 1124.72 20C1122.32 19.2 1118.32 18.8 1112.72 18.8C1106.98 18.8 1102.85 19.2 1100.32 20C1097.92 20.6667 1096.32 22 1095.52 24C1094.72 26 1094.32 29.2667 1094.32 33.8V100C1094.32 104.533 1094.72 107.8 1095.52 109.8C1096.32 111.8 1097.92 113.2 1100.32 114C1102.85 114.667 1106.98 115 1112.72 115Z" fill="#C7C7D7"/>
<path d="M1166.13 102.2C1166.13 95 1168.13 88.7333 1172.13 83.4C1176.13 78.0667 1181.33 74 1187.73 71.2C1192.8 68.9333 1198.73 66.6667 1205.53 64.4C1212.33 62.1333 1217.6 59.7333 1221.33 57.2C1225.06 54.6667 1226.93 51.6667 1226.93 48.2V31.6C1226.93 27.4667 1225.26 24.7333 1221.93 23.4C1218.33 21.9333 1212.73 21.2 1205.13 21.2C1195.93 21.2 1183.8 22.8667 1168.73 26.2V4.2C1182.06 1.4 1196 0 1210.53 0C1226.26 0 1237.93 2.4 1245.53 7.2C1253.26 12 1257.13 20 1257.13 31.2V49.2C1257.13 56 1255.06 61.9333 1250.93 67C1246.93 71.9333 1241.73 75.6667 1235.33 78.2C1229.33 80.7333 1223.2 83 1216.93 85C1210.13 87.4 1204.73 90.0667 1200.73 93C1196.86 95.9333 1194.93 99.4 1194.93 103.4V110H1257.33V131.8H1166.13V102.2Z" fill="#C7C7D7"/>
<path d="M1264 102.2C1264 95 1266 88.7333 1270 83.4C1274 78.0667 1279.2 74 1285.6 71.2C1290.67 68.9333 1296.6 66.6667 1303.4 64.4C1310.2 62.1333 1315.47 59.7333 1319.2 57.2C1322.93 54.6667 1324.8 51.6667 1324.8 48.2V31.6C1324.8 27.4667 1323.13 24.7333 1319.8 23.4C1316.2 21.9333 1310.6 21.2 1303 21.2C1293.8 21.2 1281.67 22.8667 1266.6 26.2V4.2C1279.93 1.4 1293.87 0 1308.4 0C1324.13 0 1335.8 2.4 1343.4 7.2C1351.13 12 1355 20 1355 31.2V49.2C1355 56 1352.93 61.9333 1348.8 67C1344.8 71.9333 1339.6 75.6667 1333.2 78.2C1327.2 80.7333 1321.07 83 1314.8 85C1308 87.4 1302.6 90.0667 1298.6 93C1294.73 95.9333 1292.8 99.4 1292.8 103.4V110H1355.2V131.8H1264V102.2Z" fill="#C7C7D7"/>
</svg>
